<svg width="55" height="55" viewBox="0 0 55 55" fill="none" xmlns="http://www.w3.org/2000/svg">
<path d="M27.5 5.5C15.3505 5.5 5.5 15.3505 5.5 27.5C5.5 39.6495 15.3505 49.5 27.5 49.5C39.6495 49.5 49.5 39.6495 49.5 27.5C49.5 15.3505 39.6495 5.5 27.5 5.5ZM19.2427 15.4055C20.7863 15.4055 21.8148 16.434 21.8148 17.8053C21.8148 19.1767 20.7863 20.2052 19.0722 20.2052C17.5285 20.207 16.5 19.1767 16.5 17.8053C16.5 16.434 17.5285 15.4055 19.2427 15.4055ZM22 36.6667H16.5V22H22V36.6667ZM40.3333 36.6667H35.156V28.6513C35.156 26.4348 33.7755 25.9233 33.2585 25.9233C32.7415 25.9233 31.0145 26.2643 31.0145 28.6513C31.0145 28.9923 31.0145 36.6667 31.0145 36.6667H25.6667V22H31.0163V24.046C31.7057 22.8525 33.0862 22 35.6748 22C38.2635 22 40.3333 24.046 40.3333 28.6513V36.6667Z" fill="url(#paint0_linear_63_121)"/>
<defs>
<linearGradient id="paint0_linear_63_121" x1="27.5" y1="5.5" x2="27.5" y2="49.5" gradientUnits="userSpaceOnUse">
<stop stop-color="#B6F829"/>
<stop offset="1" stop-color="#67DD0A"/>
</linearGradient>
</defs>
</svg>
