<svg width="381" height="38" viewBox="0 0 381 38" fill="none" xmlns="http://www.w3.org/2000/svg">
<path d="M35.144 37H27.416L26.84 23.992C26.68 20.888 26.6 18.12 26.6 15.688C26.6 13.832 26.648 12.072 26.744 10.408L21.608 33.496H14.168L8.69598 10.408C8.88798 13.192 8.98398 15.816 8.98398 18.28C8.98398 20.136 8.93598 22.072 8.83998 24.088L8.26398 37H0.583984L3.07998 3.736H13.016L18.008 26.296L22.664 3.736H32.648L35.144 37Z" fill="#141414"/>
<path d="M59.9664 29.608C59.9664 30.568 60.0944 31.272 60.3504 31.72C60.6384 32.168 61.0864 32.504 61.6944 32.728L60.1104 37.672C58.5424 37.544 57.2624 37.208 56.2704 36.664C55.2784 36.088 54.5104 35.192 53.9664 33.976C52.3024 36.536 49.7424 37.816 46.2864 37.816C43.7584 37.816 41.7424 37.08 40.2384 35.608C38.7344 34.136 37.9824 32.216 37.9824 29.848C37.9824 27.064 39.0064 24.936 41.0544 23.464C43.1024 21.992 46.0624 21.256 49.9344 21.256H52.5264V20.152C52.5264 18.648 52.2064 17.624 51.5664 17.08C50.9264 16.504 49.8064 16.216 48.2064 16.216C47.3744 16.216 46.3664 16.344 45.1824 16.6C43.9984 16.824 42.7824 17.144 41.5344 17.56L39.8064 12.568C41.4064 11.96 43.0384 11.496 44.7024 11.176C46.3984 10.856 47.9664 10.696 49.4064 10.696C53.0544 10.696 55.7264 11.448 57.4224 12.952C59.1184 14.456 59.9664 16.712 59.9664 19.72V29.608ZM48.4944 32.392C50.2224 32.392 51.5664 31.576 52.5264 29.944V25.432H50.6544C48.9264 25.432 47.6304 25.736 46.7664 26.344C45.9344 26.952 45.5184 27.896 45.5184 29.176C45.5184 30.2 45.7744 31 46.2864 31.576C46.8304 32.12 47.5664 32.392 48.4944 32.392Z" fill="#141414"/>
<path d="M81.9912 35.8C81.0632 36.44 79.9752 36.936 78.7272 37.288C77.5112 37.64 76.2952 37.816 75.0792 37.816C69.5112 37.784 66.7272 34.712 66.7272 28.6V16.792H63.1272V11.512H66.7272V5.99199L74.3112 5.12799V11.512H80.1672L79.3512 16.792H74.3112V28.504C74.3112 29.688 74.5032 30.536 74.8872 31.048C75.2712 31.56 75.8792 31.816 76.7112 31.816C77.5752 31.816 78.4872 31.544 79.4472 31L81.9912 35.8Z" fill="#141414"/>
<path d="M99.4509 10.696C101.659 10.696 103.387 11.368 104.635 12.712C105.883 14.056 106.507 15.944 106.507 18.376V37H98.9229V19.672C98.9229 18.392 98.7149 17.512 98.2989 17.032C97.8829 16.52 97.2909 16.264 96.5229 16.264C94.9869 16.264 93.5149 17.352 92.1069 19.528V37H84.5229V1.38399L92.1069 0.615995V14.248C93.1629 13.064 94.2829 12.184 95.4669 11.608C96.6509 11 97.9789 10.696 99.4509 10.696Z" fill="#141414"/>
<path d="M134.45 23.752C134.45 24.808 134.402 25.72 134.306 26.488H118.514C118.77 28.632 119.378 30.136 120.338 31C121.298 31.864 122.626 32.296 124.322 32.296C125.346 32.296 126.338 32.12 127.298 31.768C128.258 31.384 129.298 30.808 130.418 30.04L133.538 34.264C130.562 36.632 127.25 37.816 123.602 37.816C119.474 37.816 116.306 36.6 114.098 34.168C111.89 31.736 110.786 28.472 110.786 24.376C110.786 21.784 111.25 19.464 112.178 17.416C113.106 15.336 114.466 13.704 116.258 12.52C118.05 11.304 120.194 10.696 122.69 10.696C126.37 10.696 129.25 11.848 131.33 14.152C133.41 16.456 134.45 19.656 134.45 23.752ZM127.01 21.592C126.946 17.688 125.57 15.736 122.882 15.736C121.57 15.736 120.546 16.216 119.81 17.176C119.106 18.136 118.674 19.72 118.514 21.928H127.01V21.592Z" fill="#141414"/>
<path d="M160.214 37H153.638L153.302 33.784C151.446 36.472 148.87 37.816 145.574 37.816C143.238 37.816 141.462 37.112 140.246 35.704C139.062 34.296 138.47 32.328 138.47 29.8V11.512H146.054V28.84C146.054 30.088 146.246 30.968 146.63 31.48C147.046 31.96 147.67 32.2 148.502 32.2C150.102 32.2 151.478 31.208 152.63 29.224V11.512H160.214V37Z" fill="#141414"/>
<path d="M175.155 10.696C176.979 10.696 178.691 10.968 180.291 11.512C181.891 12.056 183.299 12.824 184.515 13.816L181.731 18.088C179.651 16.776 177.555 16.12 175.443 16.12C174.451 16.12 173.683 16.296 173.139 16.648C172.627 16.968 172.371 17.432 172.371 18.04C172.371 18.52 172.483 18.92 172.707 19.24C172.963 19.528 173.459 19.832 174.195 20.152C174.931 20.472 176.067 20.856 177.603 21.304C180.259 22.072 182.227 23.08 183.507 24.328C184.819 25.544 185.475 27.24 185.475 29.416C185.475 31.144 184.979 32.648 183.987 33.928C182.995 35.176 181.635 36.136 179.907 36.808C178.179 37.48 176.259 37.816 174.147 37.816C172.003 37.816 170.003 37.48 168.147 36.808C166.323 36.136 164.771 35.208 163.491 34.024L167.187 29.896C169.331 31.56 171.587 32.392 173.955 32.392C175.107 32.392 176.003 32.184 176.643 31.768C177.315 31.352 177.651 30.76 177.651 29.992C177.651 29.384 177.523 28.904 177.267 28.552C177.011 28.2 176.515 27.88 175.779 27.592C175.043 27.272 173.875 26.888 172.275 26.44C169.747 25.704 167.859 24.68 166.611 23.368C165.363 22.056 164.739 20.424 164.739 18.472C164.739 17 165.155 15.688 165.987 14.536C166.851 13.352 168.067 12.424 169.635 11.752C171.235 11.048 173.075 10.696 175.155 10.696Z" fill="#141414"/>
<path d="M218.437 37L216.709 29.848H207.013L205.333 37H197.173L207.205 3.736H216.757L226.789 37H218.437ZM208.357 24.136H215.365L211.861 9.448L208.357 24.136Z" fill="#141414"/>
<path d="M244.013 10.696C246.221 10.696 247.949 11.368 249.197 12.712C250.445 14.056 251.069 15.944 251.069 18.376V37H243.485V19.672C243.485 18.392 243.277 17.512 242.861 17.032C242.477 16.52 241.885 16.264 241.085 16.264C239.549 16.264 238.077 17.368 236.669 19.576V37H229.085V11.512H235.709L236.237 14.536C237.325 13.256 238.493 12.296 239.741 11.656C241.021 11.016 242.445 10.696 244.013 10.696Z" fill="#141414"/>
<path d="M279.636 1.38399V37H272.916L272.532 34.024C270.74 36.552 268.324 37.816 265.284 37.816C262.116 37.816 259.7 36.6 258.036 34.168C256.404 31.736 255.588 28.408 255.588 24.184C255.588 21.592 256.02 19.272 256.884 17.224C257.748 15.176 258.964 13.576 260.532 12.424C262.132 11.272 263.956 10.696 266.004 10.696C268.436 10.696 270.452 11.496 272.052 13.096V0.567993L279.636 1.38399ZM267.636 32.248C269.396 32.248 270.868 31.288 272.052 29.368V18.376C271.444 17.64 270.82 17.096 270.18 16.744C269.572 16.392 268.868 16.216 268.068 16.216C266.66 16.216 265.54 16.872 264.708 18.184C263.876 19.496 263.46 21.512 263.46 24.232C263.46 27.208 263.812 29.288 264.516 30.472C265.252 31.656 266.292 32.248 267.636 32.248Z" fill="#141414"/>
<path d="M299.394 10.792C300.322 10.792 301.17 10.904 301.938 11.128L300.738 18.472C299.778 18.248 299.01 18.136 298.434 18.136C296.93 18.136 295.778 18.664 294.978 19.72C294.21 20.744 293.602 22.296 293.154 24.376V37H285.57V11.512H292.194L292.818 16.456C293.394 14.696 294.258 13.32 295.41 12.328C296.594 11.304 297.922 10.792 299.394 10.792Z" fill="#141414"/>
<path d="M323.404 29.608C323.404 30.568 323.532 31.272 323.788 31.72C324.076 32.168 324.524 32.504 325.132 32.728L323.548 37.672C321.98 37.544 320.7 37.208 319.708 36.664C318.716 36.088 317.948 35.192 317.404 33.976C315.74 36.536 313.18 37.816 309.724 37.816C307.196 37.816 305.18 37.08 303.676 35.608C302.172 34.136 301.42 32.216 301.42 29.848C301.42 27.064 302.444 24.936 304.492 23.464C306.54 21.992 309.5 21.256 313.372 21.256H315.964V20.152C315.964 18.648 315.644 17.624 315.004 17.08C314.364 16.504 313.244 16.216 311.644 16.216C310.812 16.216 309.804 16.344 308.62 16.6C307.436 16.824 306.22 17.144 304.972 17.56L303.244 12.568C304.844 11.96 306.476 11.496 308.14 11.176C309.836 10.856 311.404 10.696 312.844 10.696C316.492 10.696 319.164 11.448 320.86 12.952C322.556 14.456 323.404 16.712 323.404 19.72V29.608ZM311.932 32.392C313.66 32.392 315.004 31.576 315.964 29.944V25.432H314.092C312.364 25.432 311.068 25.736 310.204 26.344C309.372 26.952 308.956 27.896 308.956 29.176C308.956 30.2 309.212 31 309.724 31.576C310.268 32.12 311.004 32.392 311.932 32.392Z" fill="#141414"/>
<path d="M352.293 1.38399V37H345.573L345.189 34.024C343.397 36.552 340.981 37.816 337.941 37.816C334.773 37.816 332.357 36.6 330.693 34.168C329.061 31.736 328.245 28.408 328.245 24.184C328.245 21.592 328.677 19.272 329.541 17.224C330.405 15.176 331.621 13.576 333.189 12.424C334.789 11.272 336.613 10.696 338.661 10.696C341.093 10.696 343.109 11.496 344.709 13.096V0.567993L352.293 1.38399ZM340.293 32.248C342.053 32.248 343.525 31.288 344.709 29.368V18.376C344.101 17.64 343.477 17.096 342.837 16.744C342.229 16.392 341.525 16.216 340.725 16.216C339.317 16.216 338.197 16.872 337.365 18.184C336.533 19.496 336.117 21.512 336.117 24.232C336.117 27.208 336.469 29.288 337.173 30.472C337.909 31.656 338.949 32.248 340.293 32.248Z" fill="#141414"/>
<path d="M380.45 23.752C380.45 24.808 380.402 25.72 380.306 26.488H364.514C364.77 28.632 365.378 30.136 366.338 31C367.298 31.864 368.626 32.296 370.322 32.296C371.346 32.296 372.338 32.12 373.298 31.768C374.258 31.384 375.298 30.808 376.418 30.04L379.538 34.264C376.562 36.632 373.25 37.816 369.602 37.816C365.474 37.816 362.306 36.6 360.098 34.168C357.89 31.736 356.786 28.472 356.786 24.376C356.786 21.784 357.25 19.464 358.178 17.416C359.106 15.336 360.466 13.704 362.258 12.52C364.05 11.304 366.194 10.696 368.69 10.696C372.37 10.696 375.25 11.848 377.33 14.152C379.41 16.456 380.45 19.656 380.45 23.752ZM373.01 21.592C372.946 17.688 371.57 15.736 368.882 15.736C367.57 15.736 366.546 16.216 365.81 17.176C365.106 18.136 364.674 19.72 364.514 21.928H373.01V21.592Z" fill="#141414"/>
</svg>
